<svg width="328" height="434" viewBox="0 0 328 434" fill="none" xmlns="http://www.w3.org/2000/svg">
<rect width="328" height="434" fill="#7DA2A9"/>
<path d="M83.5 125V90H104.5V94.1H88.25V104.75H102.25V108.75H88.25V120.9H104.5V125H83.5ZM125.084 125L112.234 91.25L116.884 89.45L127.884 119.8L138.934 89.6L143.234 91.25L130.434 125H125.084ZM153.217 125V90H174.217V94.1H157.967V104.75H171.967V108.75H157.967V120.9H174.217V125H153.217ZM185.951 125V90H192.251L207.701 119.1V90H212.201V125H206.001L190.451 96.1V125H185.951ZM232.955 125V94.2H222.205V90H248.455V94.2H237.705V125H232.955Z" fill="#F4F4F4"/>
</svg>
